<svg width="40" height="48" viewBox="0 0 40 48" fill="none" xmlns="http://www.w3.org/2000/svg">
    <path d="M20.0106 48L0.150635 37.86L20.0106 28.12V48Z" fill="url(#paint0_linear_76_212)"/>
    <path d="M20.0106 48L0.150635 37.88L20.0306 28.12V48H20.0106Z" stroke="#726691" stroke-width="0.05" stroke-miterlimit="10"/>
    <path d="M20.0103 28.12L39.8703 37.92L20.0103 48V28.12Z" fill="url(#paint1_linear_76_212)"/>
    <path d="M20.0103 28.12L39.8703 37.92L20.0303 48V28.12H20.0103Z" stroke="url(#paint2_linear_76_212)" stroke-width="0.05" stroke-miterlimit="10"/>
    <path d="M31.7503 22.4L39.8703 37.9L20.0103 28.1L31.7503 22.4Z" fill="url(#paint3_linear_76_212)"/>
    <path d="M31.7703 22.4L39.8703 37.9L20.0103 28.12L31.7503 22.38L31.7703 22.4Z" stroke="#B5A7DB" stroke-width="0.05" stroke-miterlimit="10"/>
    <path d="M8.29061 22.36L20.0106 28.12L0.130615 37.84L8.29061 22.36V22.36Z" fill="url(#paint4_linear_76_212)"/>
    <path d="M8.29063 22.36L20.0306 28.1L0.150635 37.86L8.29063 22.36V22.36Z" stroke="#8073A3" stroke-width="0.05" stroke-miterlimit="10"/>
    <path d="M20.0105 28.12V0.0200195L8.31055 22.38L20.0505 28.12H20.0105Z" fill="url(#paint5_linear_76_212)"/>
    <path d="M20.0106 28.12V0L8.33057 22.36L20.0506 28.12H20.0106Z" stroke="#9688BD" stroke-width="0.05" stroke-miterlimit="10"/>
    <path d="M20.0103 28.12V0.0200195L31.7503 22.4L20.0103 28.12Z" fill="url(#paint6_linear_76_212)"/>
    <path d="M20.0103 28.12V0L31.7703 22.4L20.0103 28.1V28.12Z" stroke="#AFA0D8" stroke-width="0.05" stroke-miterlimit="10"/>
    <path d="M20.0106 48L0.150635 37.86L20.0106 28.12V48Z" fill="url(#paint7_linear_76_212)"/>
    <path d="M20.0106 48L0.150635 37.88L20.0306 28.12V48H20.0106Z" stroke="#726691" stroke-width="0.05" stroke-miterlimit="10"/>
    <path d="M20.0103 28.12L39.8703 37.92L20.0103 48V28.12Z" fill="url(#paint8_linear_76_212)"/>
    <path d="M20.0103 28.12L39.8703 37.92L20.0303 48V28.12H20.0103Z" stroke="url(#paint9_linear_76_212)" stroke-width="0.05" stroke-miterlimit="10"/>
    <path d="M31.7503 22.4L39.8703 37.9L20.0103 28.1L31.7503 22.4Z" fill="url(#paint10_linear_76_212)"/>
    <path d="M31.7703 22.4L39.8703 37.9L20.0103 28.12L31.7503 22.38L31.7703 22.4Z" stroke="#B5A7DB" stroke-width="0.05" stroke-miterlimit="10"/>
    <path d="M8.29061 22.36L20.0106 28.12L0.130615 37.84L8.29061 22.36V22.36Z" fill="url(#paint11_linear_76_212)"/>
    <path d="M8.29063 22.36L20.0306 28.1L0.150635 37.86L8.29063 22.36V22.36Z" stroke="#8073A3" stroke-width="0.05" stroke-miterlimit="10"/>
    <path d="M20.0105 28.12V0.0200195L8.31055 22.38L20.0505 28.12H20.0105Z" fill="url(#paint12_linear_76_212)"/>
    <path d="M20.0106 28.12V0L8.33057 22.36L20.0506 28.12H20.0106Z" stroke="#9688BD" stroke-width="0.05" stroke-miterlimit="10"/>
    <path d="M20.0103 28.12V0.0200195L31.7503 22.4L20.0103 28.12Z" fill="url(#paint13_linear_76_212)"/>
    <path d="M20.0103 28.12V0L31.7703 22.4L20.0103 28.1V28.12Z" stroke="#AFA0D8" stroke-width="0.05" stroke-miterlimit="10"/>
    <path d="M20.0106 48L0.150635 37.86L20.0106 28.12V48Z" fill="url(#paint14_linear_76_212)"/>
    <path d="M20.0106 48L0.150635 37.88L20.0306 28.12V48H20.0106Z" stroke="#726691" stroke-width="0.05" stroke-miterlimit="10"/>
    <path d="M20.0103 28.12L39.8703 37.92L20.0103 48V28.12Z" fill="url(#paint15_linear_76_212)"/>
    <path d="M20.0103 28.12L39.8703 37.92L20.0303 48V28.12H20.0103Z" stroke="url(#paint16_linear_76_212)" stroke-width="0.05" stroke-miterlimit="10"/>
    <path d="M31.7503 22.4L39.8703 37.9L20.0103 28.1L31.7503 22.4Z" fill="url(#paint17_linear_76_212)"/>
    <path d="M31.7703 22.4L39.8703 37.9L20.0103 28.12L31.7503 22.38L31.7703 22.4Z" stroke="#B5A7DB" stroke-width="0.05" stroke-miterlimit="10"/>
    <path d="M8.29061 22.36L20.0106 28.12L0.130615 37.84L8.29061 22.36V22.36Z" fill="url(#paint18_linear_76_212)"/>
    <path d="M8.29063 22.36L20.0306 28.1L0.150635 37.86L8.29063 22.36V22.36Z" stroke="#8073A3" stroke-width="0.05" stroke-miterlimit="10"/>
    <path d="M20.0105 28.12V0.0200195L8.31055 22.38L20.0505 28.12H20.0105Z" fill="url(#paint19_linear_76_212)"/>
    <path d="M20.0106 28.12V0L8.33057 22.36L20.0506 28.12H20.0106Z" stroke="#9688BD" stroke-width="0.05" stroke-miterlimit="10"/>
    <path d="M20.0103 28.12V0.0200195L31.7503 22.4L20.0103 28.12Z" fill="url(#paint20_linear_76_212)"/>
    <path d="M20.0103 28.12V0L31.7703 22.4L20.0103 28.1V28.12Z" stroke="#AFA0D8" stroke-width="0.05" stroke-miterlimit="10"/>
    <path d="M20.0106 48L0.150635 37.86L20.0106 28.12V48Z" fill="url(#paint21_linear_76_212)"/>
    <path d="M20.0106 48L0.150635 37.88L20.0306 28.12V48H20.0106Z" stroke="#726691" stroke-width="0.05" stroke-miterlimit="10"/>
    <path d="M20.0103 28.12L39.8703 37.92L20.0103 48V28.12Z" fill="url(#paint22_linear_76_212)"/>
    <path d="M20.0103 28.12L39.8703 37.92L20.0303 48V28.12H20.0103Z" stroke="url(#paint23_linear_76_212)" stroke-width="0.05" stroke-miterlimit="10"/>
    <path d="M31.7503 22.4L39.8703 37.9L20.0103 28.1L31.7503 22.4Z" fill="url(#paint24_linear_76_212)"/>
    <path d="M31.7703 22.4L39.8703 37.9L20.0103 28.12L31.7503 22.38L31.7703 22.4Z" stroke="#B5A7DB" stroke-width="0.05" stroke-miterlimit="10"/>
    <path d="M8.29061 22.36L20.0106 28.12L0.130615 37.84L8.29061 22.36V22.36Z" fill="url(#paint25_linear_76_212)"/>
    <path d="M8.29063 22.36L20.0306 28.1L0.150635 37.86L8.29063 22.36V22.36Z" stroke="#8073A3" stroke-width="0.05" stroke-miterlimit="10"/>
    <path d="M20.0105 28.12V0.0200195L8.31055 22.38L20.0505 28.12H20.0105Z" fill="url(#paint26_linear_76_212)"/>
    <path d="M20.0106 28.12V0L8.33057 22.36L20.0506 28.12H20.0106Z" stroke="#9688BD" stroke-width="0.05" stroke-miterlimit="10"/>
    <path d="M20.0103 28.12V0.0200195L31.7503 22.4L20.0103 28.12Z" fill="url(#paint27_linear_76_212)"/>
    <path d="M20.0103 28.12V0L31.7703 22.4L20.0103 28.1V28.12Z" stroke="#AFA0D8" stroke-width="0.05" stroke-miterlimit="10"/>
    <defs>
        <linearGradient id="paint0_linear_76_212" x1="4.45063" y1="31.18" x2="24.7506" y2="41.4" gradientUnits="userSpaceOnUse">
            <stop stop-color="#8175A5"/>
            <stop offset="1" stop-color="#63577F"/>
        </linearGradient>
        <linearGradient id="paint1_linear_76_212" x1="19.8503" y1="49.98" x2="34.6103" y2="28.36" gradientUnits="userSpaceOnUse">
            <stop stop-color="#655981"/>
            <stop offset="0.2" stop-color="#73628C"/>
            <stop offset="1" stop-color="#B3A5DA"/>
        </linearGradient>
        <linearGradient id="paint2_linear_76_212" x1="20.0303" y1="-173.76" x2="39.8903" y2="-173.76" gradientUnits="userSpaceOnUse">
            <stop stop-color="#73628C"/>
            <stop offset="0.6" stop-color="#B3A5DA"/>
            <stop offset="1" stop-color="#B3A5DA"/>
        </linearGradient>
        <linearGradient id="paint3_linear_76_212" x1="28.6103" y1="32.7" x2="44.1103" y2="15.6" gradientUnits="userSpaceOnUse">
            <stop stop-color="#AFA0D8"/>
            <stop offset="1" stop-color="#CEC6E6"/>
        </linearGradient>
        <linearGradient id="paint4_linear_76_212" x1="10.1706" y1="31.92" x2="12.3506" y2="25.36" gradientUnits="userSpaceOnUse">
            <stop stop-color="#887BAE"/>
            <stop offset="1" stop-color="#796D9B"/>
        </linearGradient>
        <linearGradient id="paint5_linear_76_212" x1="22.6905" y1="14.06" x2="12.3905" y2="14.06" gradientUnits="userSpaceOnUse">
            <stop stop-color="#AFA0D8"/>
            <stop offset="1" stop-color="#887BAE"/>
        </linearGradient>
        <linearGradient id="paint6_linear_76_212" x1="23.3503" y1="17.3" x2="30.6303" y2="24.2" gradientUnits="userSpaceOnUse">
            <stop stop-color="#AFA0D8"/>
            <stop offset="1" stop-color="#CEC6E6"/>
        </linearGradient>
        <linearGradient id="paint7_linear_76_212" x1="4.45063" y1="31.18" x2="24.7506" y2="41.4" gradientUnits="userSpaceOnUse">
            <stop stop-color="#8175A5"/>
            <stop offset="1" stop-color="#63577F"/>
        </linearGradient>
        <linearGradient id="paint8_linear_76_212" x1="19.8503" y1="49.98" x2="34.6103" y2="28.36" gradientUnits="userSpaceOnUse">
            <stop stop-color="#655981"/>
            <stop offset="0.2" stop-color="#73628C"/>
            <stop offset="1" stop-color="#B3A5DA"/>
        </linearGradient>
        <linearGradient id="paint9_linear_76_212" x1="20.0303" y1="-173.76" x2="39.8903" y2="-173.76" gradientUnits="userSpaceOnUse">
            <stop stop-color="#73628C"/>
            <stop offset="0.6" stop-color="#B3A5DA"/>
            <stop offset="1" stop-color="#B3A5DA"/>
        </linearGradient>
        <linearGradient id="paint10_linear_76_212" x1="28.6103" y1="32.7" x2="44.1103" y2="15.6" gradientUnits="userSpaceOnUse">
            <stop stop-color="#AFA0D8"/>
            <stop offset="1" stop-color="#CEC6E6"/>
        </linearGradient>
        <linearGradient id="paint11_linear_76_212" x1="10.1706" y1="31.92" x2="12.3506" y2="25.36" gradientUnits="userSpaceOnUse">
            <stop stop-color="#887BAE"/>
            <stop offset="1" stop-color="#796D9B"/>
        </linearGradient>
        <linearGradient id="paint12_linear_76_212" x1="22.6905" y1="14.06" x2="12.3905" y2="14.06" gradientUnits="userSpaceOnUse">
            <stop stop-color="#AFA0D8"/>
            <stop offset="1" stop-color="#887BAE"/>
        </linearGradient>
        <linearGradient id="paint13_linear_76_212" x1="23.3503" y1="17.3" x2="30.6303" y2="24.2" gradientUnits="userSpaceOnUse">
            <stop stop-color="#AFA0D8"/>
            <stop offset="1" stop-color="#CEC6E6"/>
        </linearGradient>
        <linearGradient id="paint14_linear_76_212" x1="4.45063" y1="31.18" x2="24.7506" y2="41.4" gradientUnits="userSpaceOnUse">
            <stop stop-color="#8175A5"/>
            <stop offset="1" stop-color="#63577F"/>
        </linearGradient>
        <linearGradient id="paint15_linear_76_212" x1="19.8503" y1="49.98" x2="34.6103" y2="28.36" gradientUnits="userSpaceOnUse">
            <stop stop-color="#655981"/>
            <stop offset="0.2" stop-color="#73628C"/>
            <stop offset="1" stop-color="#B3A5DA"/>
        </linearGradient>
        <linearGradient id="paint16_linear_76_212" x1="20.0303" y1="-173.76" x2="39.8903" y2="-173.76" gradientUnits="userSpaceOnUse">
            <stop stop-color="#73628C"/>
            <stop offset="0.6" stop-color="#B3A5DA"/>
            <stop offset="1" stop-color="#B3A5DA"/>
        </linearGradient>
        <linearGradient id="paint17_linear_76_212" x1="28.6103" y1="32.7" x2="44.1103" y2="15.6" gradientUnits="userSpaceOnUse">
            <stop stop-color="#AFA0D8"/>
            <stop offset="1" stop-color="#CEC6E6"/>
        </linearGradient>
        <linearGradient id="paint18_linear_76_212" x1="10.1706" y1="31.92" x2="12.3506" y2="25.36" gradientUnits="userSpaceOnUse">
            <stop stop-color="#887BAE"/>
            <stop offset="1" stop-color="#796D9B"/>
        </linearGradient>
        <linearGradient id="paint19_linear_76_212" x1="22.6905" y1="14.06" x2="12.3905" y2="14.06" gradientUnits="userSpaceOnUse">
            <stop stop-color="#AFA0D8"/>
            <stop offset="1" stop-color="#887BAE"/>
        </linearGradient>
        <linearGradient id="paint20_linear_76_212" x1="23.3503" y1="17.3" x2="30.6303" y2="24.2" gradientUnits="userSpaceOnUse">
            <stop stop-color="#AFA0D8"/>
            <stop offset="1" stop-color="#CEC6E6"/>
        </linearGradient>
        <linearGradient id="paint21_linear_76_212" x1="4.45063" y1="31.18" x2="24.7506" y2="41.4" gradientUnits="userSpaceOnUse">
            <stop stop-color="#8175A5"/>
            <stop offset="1" stop-color="#63577F"/>
        </linearGradient>
        <linearGradient id="paint22_linear_76_212" x1="19.8503" y1="49.98" x2="34.6103" y2="28.36" gradientUnits="userSpaceOnUse">
            <stop stop-color="#655981"/>
            <stop offset="0.2" stop-color="#73628C"/>
            <stop offset="1" stop-color="#B3A5DA"/>
        </linearGradient>
        <linearGradient id="paint23_linear_76_212" x1="20.0303" y1="-173.76" x2="39.8903" y2="-173.76" gradientUnits="userSpaceOnUse">
            <stop stop-color="#73628C"/>
            <stop offset="0.6" stop-color="#B3A5DA"/>
            <stop offset="1" stop-color="#B3A5DA"/>
        </linearGradient>
        <linearGradient id="paint24_linear_76_212" x1="28.6103" y1="32.7" x2="44.1103" y2="15.6" gradientUnits="userSpaceOnUse">
            <stop stop-color="#AFA0D8"/>
            <stop offset="1" stop-color="#CEC6E6"/>
        </linearGradient>
        <linearGradient id="paint25_linear_76_212" x1="10.1706" y1="31.92" x2="12.3506" y2="25.36" gradientUnits="userSpaceOnUse">
            <stop stop-color="#887BAE"/>
            <stop offset="1" stop-color="#796D9B"/>
        </linearGradient>
        <linearGradient id="paint26_linear_76_212" x1="22.6905" y1="14.06" x2="12.3905" y2="14.06" gradientUnits="userSpaceOnUse">
            <stop stop-color="#AFA0D8"/>
            <stop offset="1" stop-color="#887BAE"/>
        </linearGradient>
        <linearGradient id="paint27_linear_76_212" x1="23.3503" y1="17.3" x2="30.6303" y2="24.2" gradientUnits="userSpaceOnUse">
            <stop stop-color="#AFA0D8"/>
            <stop offset="1" stop-color="#CEC6E6"/>
        </linearGradient>
    </defs>
</svg>
